<?xml version="1.0" encoding="UTF-8"?>
<svg viewBox="0 0 193.75 117.5" xmlns="http://www.w3.org/2000/svg" xmlns:xlink="http://www.w3.org/1999/xlink">
 <g transform="translate(-74.818 -328.28)" fill-rule="evenodd" stroke="#000">
  <path transform="translate(-176.1 32.065)" d="m344.57 325.82a4.3262 4.3262 0 1 0 -8.6524 0 4.3262 4.3262 0 1 0 8.6524 0z" stroke-width="1.25"/>
  <path transform="translate(-177.12 53.441)" d="m344.57 325.82a4.3262 4.3262 0 1 0 -8.6524 0 4.3262 4.3262 0 1 0 8.6524 0z" stroke-width="1.25"/>
  <path transform="matrix(1.3977 0 0 1.3977 -44.923 -146.31)" d="m118.08 368.82a8.6524 8.6524 0 1 0 -17.305 0 8.6524 8.6524 0 1 0 17.305 0z" stroke-width="1.252"/>
  <path d="m95.86 371.63c-5.5951-19.505 7.9001-32.38 25.689-32.801 18.043-0.42105 29.476 15.601 29.86 30.387 0.63863 14.787-6.0238 26.93-19.494 41.516-11.038 12.161-32.25 21.878-33.826 20.465-1.7564-1.4123 16.211-9.3467 27.388-22.104 6.9329-8.0933 14.041-25.185 13.442-37.831-1.043-16.655-14.435-26.252-19.667-27.207-3.4517-0.71091-6.8644 0.11976-10.181 1.676-2.7286 1.334-4.4352 3.9969-4.5041 5.4552-0.16301 3.1936 3.9086 5.0951 6.12 5.7684 8.2582 2.4949-3.5894 23.734-14.826 14.674z" stroke-width="1.25"/>
 </g>
</svg>
