<?xml version="1.0" encoding="UTF-8"?>
<svg viewBox="0 0 240 153.33" xmlns="http://www.w3.org/2000/svg">
 <g transform="matrix(.84369 0 0 1 -65.548 -327.43)" fill="none" stroke="#000">
  <path d="m89.253 344.82v89.064" stroke-width="5.286"/>
  <g stroke-width="1.25">
   <path d="m89.253 345.53l177.07 0.7198"/>
   <path d="m90.693 367.49l177.07 0.7198"/>
   <path d="m91.412 389.26l177.07 0.7198"/>
   <path d="m89.613 411.48l177.07 0.7198"/>
   <path d="m90.333 433.26l177.07 0.7198"/>
  </g>
 </g>
 <g transform="matrix(.907 0 0 .91953 -219.19 1.229)">
  <g stroke="#000">
   <path d="m280.22 138.82c0.021912 8.47 18.816 7.394 18.753-6.573 0.02478-13.607-17.955-89.746-18.155-104.31-0.2114-11.557 6.1223-24.51 11.548-24.369 4.2986 0.141 8.3376 9.8729 8.3154 21.986 0.32638 39.173-33.981 36.641-33.981 63.409 0 17.302 14.363 21.872 21.545 21.872 24.32-0.163 20.239-29.38 4.7333-29.38-9.1403-0.32661-17.138 12.078-5.0598 22.361-20.402-8.9768-9.4667-30.685 6.692-30.848 21.545 0.1631 25.299 39.662-6.3655 39.825-18.934 0.16399-26.931-16.485-26.768-29.542 0-25.136 37.051-39.662 36.561-60.881 0-13.384-13.874-7.3449-14.2 14.2 0.32651 13.384 17.628 84.058 17.465 94.994 0 22.524-28.89 15.179-28.89 3.754 0.16318-16.322 16.975-4.734 11.752-4.244-4.0806 7.182-3.9457 7.742-3.9457 7.742z"/>
   <path d="m288.04 131.73c0 3.789-3.1601 6.865-7.0534 6.865s-7.0535-3.076-7.0535-6.865c0-3.79 3.1602-6.866 7.0535-6.866s7.0534 3.076 7.0534 6.866z"/>
  </g>
  <path d="m295.7 109.32h2.3125v2.25h-2.3125v-2.25z"/>
  <path d="m288.95 74.004h2.9375v7.3125h-2.9375v-7.3125z"/>
  <path d="m283.75 46.843l1.393-0.2405 1.9603 12.937-1.393 0.2405-1.9603-12.937z"/>
 </g>
</svg>
